<svg xmlns="http://www.w3.org/2000/svg" viewBox="128 367 1332 230" fill="#F3F2EC"><path d="M651.734 412.084L720.629 412.058C772.942 412.056 834.723 404.557 837.6 479.606C838.751 509.636 822.797 537.4 791.345 544.66C765.636 548.938 729.88 545.927 703.036 546.685C702.972 563.032 703.011 579.379 703.155 595.726L651.653 595.894L651.596 581.493C651.858 546.192 652.628 507.837 651.687 472.787C652.46 454.374 651.797 430.761 651.734 412.084ZM703.233 505.762C723.376 505.999 748.387 506.904 768.471 505.07C771.774 504.768 775.84 502.508 778.549 500.495C787.875 489.464 790.116 469.163 778.464 458.769C769.953 451.177 754.007 452.9 742.988 452.958L703.182 453.219C702.836 470.509 703.145 488.424 703.233 505.762Z"/><path d="M398.618 412.184L525.682 412.225C538.037 412.244 550.452 412.418 562.886 412.292C583.484 412.085 604.396 412.502 620.298 427.962C633.949 441.233 633.648 457.836 633.674 475.51C633.57 489.839 633.653 504.169 633.925 518.496L634.158 546.739C617.248 546.572 600.337 546.514 583.426 546.567C582.944 530.427 583.153 509.491 583.532 493.301C584.582 448.391 580.748 452.528 538.957 453.072C538.688 484.087 538.987 515.578 539.105 546.629L490.084 546.769C490.211 522.42 490.2 498.071 490.049 473.723C490.578 452.773 484.417 452.23 464.984 452.728C459.54 452.868 453.426 452.998 447.956 453.067C447.964 483.222 448.845 516.808 448.107 546.698L398.798 546.602L398.618 412.184Z"/><path d="M239.15 368.32C258.158 368.337 279.476 367.869 298.294 368.507C315.739 402.971 333.484 437.282 351.524 471.438C363.351 493.694 379.898 523.847 390.452 546.485L332.706 546.506C329.226 539.384 320.8 523.127 318.301 516.463L231.019 516.404L251.718 474.863C266.82 474.843 283.864 475.339 298.709 474.833C288.499 455.654 278 433.96 267.281 415.406C242.525 459.557 215.74 502.301 191.116 546.171C188.209 547.023 131.991 547.052 129.842 546.296L129.927 545.167C133.121 541.316 139.399 530.391 142.219 525.744L163.64 490.612C184.858 456.65 208.667 419.263 228.655 384.984L239.15 368.32Z"/><path d="M1187.59 411.919L1200.59 411.858C1225.87 411.841 1250.82 413.857 1269.88 432.913C1293.82 456.849 1293.87 504.193 1269.22 527.717C1251.91 544.239 1233.42 546.803 1210.8 546.564C1182.6 546.674 1153.14 550.227 1130.29 529.48C1104.62 506.178 1102.66 459.954 1126.33 434.504C1142.99 416.582 1164.31 412.679 1187.59 411.919ZM1218.4 505.382C1235.65 500.759 1240.13 487.175 1236.84 470.515C1232.52 448.598 1197.54 452.038 1180.4 453.465C1172.3 455.537 1167.88 457.512 1163.58 464.706C1157 475.738 1158.97 496.519 1171.35 502.593C1181.54 507.587 1207.21 506.756 1218.4 505.382Z"/><path d="M1300.61 412.085L1363.28 412.026C1379.86 412.018 1399.17 410.684 1415.22 414.537C1461.75 425.703 1457.43 465.066 1457.54 502.329L1458.01 546.882C1440.82 547.19 1422.93 546.69 1405.48 546.887C1405.66 521.942 1406.28 494.057 1405.47 469.306C1404.57 464.272 1403.35 459.32 1398.58 456.702C1387.16 450.431 1365.26 453.154 1352.38 453.203C1352.17 458.787 1351.92 464.044 1352.13 469.64C1351.88 495.1 1352.6 521.2 1352.68 546.768L1300.41 546.676L1300.61 412.085Z"/><path d="M850.363 368.312C868.49 368.015 887.289 368.304 905.466 368.345C905.649 383.157 904.627 396.965 905.211 412.054C924.171 411.918 943.132 411.982 962.091 412.246C962.538 424.435 961.956 438.432 962.179 451.034L952.586 451.068C937.072 451.088 920.141 450.757 904.748 451.184C903.394 510.113 902.736 505.43 960.18 504.257L961.533 504.64C963.184 506.857 962.469 541.092 962.447 546.686L926.767 546.607C898.329 546.621 859.949 546.516 852.158 509.386C848.866 493.692 850.419 471.66 850.447 455.071C850.575 426.152 850.547 397.232 850.363 368.312Z"/><path d="M1031.53 439.923C1048.61 421.416 1065.02 412.985 1090.73 411.978C1095.96 411.774 1101.2 411.768 1106.43 411.959C1106.22 425.688 1106.22 439.419 1106.42 453.149C1074.36 453.062 1048.74 457.305 1031.34 487.812C1031.2 494.571 1032.23 544.332 1030.85 546.199C1027.91 546.913 1026.82 546.819 1023.88 546.773L1006.99 546.823C998.064 546.785 988.115 546.956 979.275 546.564C979.626 501.751 979.651 456.935 979.348 412.121C994.052 411.792 1016.71 411.523 1031.3 412.319C1031.24 421.615 1031.15 430.621 1031.53 439.923Z"/></svg>
