<?xml version="1.0" encoding="UTF-8"?>
<svg xmlns="http://www.w3.org/2000/svg" viewBox="0 0 1024 1024" width="32" height="32" role="img" aria-label="Amptron">
  <style>
    .plate { fill: none; }
    @media (prefers-color-scheme: dark) {
      .plate { fill: #ffffff; }
    }
  </style>
  <rect class="plate" width="1024" height="1024" rx="180"/>
  <g transform="translate(12 12) scale(0.9765625)">
    <path fill="#0C2646" d="M463.961 278.684L582.78 278.522C585.482 282.399 590.71 293.166 593.078 297.834L612.691 336.869C631.133 373.124 652.449 412.151 669.486 448.759C661.335 453.819 650.86 458.742 642.313 463.494C619.997 475.901 596.03 487.339 573.869 499.758C555.878 463.503 539.13 425.315 521.668 388.689C499.795 435.508 478.291 482.498 457.158 529.656C450.833 543.242 444.844 557.493 438.538 571.255C409.073 587.835 378.852 603.051 349.01 619.003L306.405 641.589C294.846 647.802 282.676 654.691 270.881 660.274L404.928 394.731L444.301 316.857L456.568 292.489C458.431 288.801 461.736 281.92 463.961 278.684Z"/>
    <path fill="#3FD598" d="M848.526 375.097C848.517 375.226 848.526 375.358 848.499 375.485C848.096 377.386 766.47 439.864 757.733 446.633L491.041 652.644L413.248 712.734L386.791 733.261C382.243 736.771 375.163 742.489 370.517 745.31C348.804 746.325 321.463 745.534 299.237 745.526L151.787 745.555L151.872 744.731C160.053 739.808 171.623 734.136 180.396 729.475L230.108 702.853L411.248 606.769L675.608 466.37C720.084 442.625 764.687 419.12 809.417 395.856C822.581 388.987 835.21 381.858 848.526 375.097Z"/>
    <path fill="#0C2646" d="M701.52 513.037C704.082 516.163 714.805 537.924 717.13 542.531L746.695 600.448C761.688 629.884 776.842 659.237 792.158 688.505C801.019 705.416 813.902 728.562 821.25 745.319C814.403 744.543 798.431 745.364 790.966 745.43L732.25 745.476C717.21 745.54 702.17 745.512 687.131 745.392C673.249 717.554 659.841 686.437 646.597 657.976L624.878 611.472C620.416 601.925 615.239 591.304 611.323 581.618C617.536 577.614 626.558 570.425 632.607 565.791L676.858 531.731C684.017 526.206 694.189 517.875 701.52 513.037Z"/>
  </g>
</svg>
